# xmcd
#
# Track frame offsets:
#  150
#  30617
#  50305
#  76789
#  91850
#  109990
#  128066
#  141819
#  168164
#  188395
#  207854
#  227761
#  251682
#  274222
#  292046
#  314670
#
# Disc length: 4532 seconds
#
# Revision: 0
# Processed by: cddbd v1.5.1PL2 Copyright (c) Steve Scherf et al.
# Submitted via: AltoMP3_Maker 3.0
#
DISCID=da11b210
DTITLE=凯丽金 - 凯丽金超白珍藏版B
DYEAR=1900
DGENRE=
TTITLE0=夏日时光
TTITLE1=此夜终结
TTITLE2=托卡塔曲
TTITLE3=爱你
TTITLE4=纯洁
TTITLE5=生命的主题
TTITLE6=多美妙的世界
TTITLE7=回忆
TTITLE8=我将永远爱你
TTITLE9=欢乐人生
TTITLE10=冠军的主题曲
TTITLE11=孤独
TTITLE12=在雨中
TTITLE13=祝你圣诞快乐
TTITLE14=假如我心已碎
TTITLE15=永远
EXTD=
EXTT0=
EXTT1=
EXTT2=
EXTT3=
EXTT4=
EXTT5=
EXTT6=
EXTT7=
EXTT8=
EXTT9=
EXTT10=
EXTT11=
EXTT12=
EXTT13=
EXTT14=
EXTT15=
PLAYORDER=
